M48
; DRILL file KiCad 10.0.2 date 2026-09-24T20:39:48
; FORMAT={-:-/ absolute / metric / decimal}
; #@! TF.CreationDate,2026-09-24T20:39:48+05:30
; #@! TF.GenerationSoftware,Kicad,Pcbnew,10.0.2
; #@! TF.FileFunction,NonPlated,1,2,NPTH
FMAT,2
METRIC
; #@! TA.AperFunction,NonPlated,NPTH,ComponentDrill
T1C1.700
; #@! TA.AperFunction,NonPlated,NPTH,ComponentDrill
T2C4.000
%
G90
G05
T1
X74.79Y-66.992
X74.79Y-86.042
X74.79Y-105.093
X84.95Y-66.992
X84.95Y-86.042
X84.95Y-105.093
X93.84Y-66.992
X93.84Y-86.042
X93.84Y-105.093
X104.0Y-66.992
X104.0Y-86.042
X104.0Y-105.093
X112.89Y-66.992
X112.89Y-86.042
X112.89Y-105.093
X123.05Y-66.992
X123.05Y-86.042
X123.05Y-105.093
X164.15Y-105.312
X174.31Y-105.312
X183.2Y-105.312
X193.36Y-105.312
X202.25Y-105.312
X212.41Y-105.312
T2
X79.87Y-66.992
X79.87Y-86.042
X79.87Y-105.093
X98.92Y-66.992
X98.92Y-86.042
X98.92Y-105.093
X117.97Y-66.992
X117.97Y-86.042
X117.97Y-105.093
X169.23Y-105.312
X188.28Y-105.312
X207.33Y-105.312
M30
