%TF.GenerationSoftware,KiCad,Pcbnew,10.0.2*%
%TF.CreationDate,2026-09-24T20:39:42+05:30*%
%TF.ProjectId,Micropad,4d696372-6f70-4616-942e-6b696361645f,rev?*%
%TF.SameCoordinates,Original*%
%TF.FileFunction,Legend,Top*%
%TF.FilePolarity,Positive*%
%FSLAX46Y46*%
G04 Gerber Fmt 4.6, Leading zero omitted, Abs format (unit mm)*
G04 Created by KiCad (PCBNEW 10.0.2) date 2026-09-24 20:39:42*
%MOMM*%
%LPD*%
G01*
G04 APERTURE LIST*
%ADD10C,0.150000*%
%ADD11C,0.120000*%
G04 APERTURE END LIST*
D10*
X78536667Y-97625700D02*
X78679524Y-97673319D01*
X78679524Y-97673319D02*
X78917619Y-97673319D01*
X78917619Y-97673319D02*
X79012857Y-97625700D01*
X79012857Y-97625700D02*
X79060476Y-97578080D01*
X79060476Y-97578080D02*
X79108095Y-97482842D01*
X79108095Y-97482842D02*
X79108095Y-97387604D01*
X79108095Y-97387604D02*
X79060476Y-97292366D01*
X79060476Y-97292366D02*
X79012857Y-97244747D01*
X79012857Y-97244747D02*
X78917619Y-97197128D01*
X78917619Y-97197128D02*
X78727143Y-97149509D01*
X78727143Y-97149509D02*
X78631905Y-97101890D01*
X78631905Y-97101890D02*
X78584286Y-97054271D01*
X78584286Y-97054271D02*
X78536667Y-96959033D01*
X78536667Y-96959033D02*
X78536667Y-96863795D01*
X78536667Y-96863795D02*
X78584286Y-96768557D01*
X78584286Y-96768557D02*
X78631905Y-96720938D01*
X78631905Y-96720938D02*
X78727143Y-96673319D01*
X78727143Y-96673319D02*
X78965238Y-96673319D01*
X78965238Y-96673319D02*
X79108095Y-96720938D01*
X79441429Y-96673319D02*
X79679524Y-97673319D01*
X79679524Y-97673319D02*
X79870000Y-96959033D01*
X79870000Y-96959033D02*
X80060476Y-97673319D01*
X80060476Y-97673319D02*
X80298572Y-96673319D01*
X80584286Y-96673319D02*
X81250952Y-96673319D01*
X81250952Y-96673319D02*
X80822381Y-97673319D01*
X97586667Y-97625700D02*
X97729524Y-97673319D01*
X97729524Y-97673319D02*
X97967619Y-97673319D01*
X97967619Y-97673319D02*
X98062857Y-97625700D01*
X98062857Y-97625700D02*
X98110476Y-97578080D01*
X98110476Y-97578080D02*
X98158095Y-97482842D01*
X98158095Y-97482842D02*
X98158095Y-97387604D01*
X98158095Y-97387604D02*
X98110476Y-97292366D01*
X98110476Y-97292366D02*
X98062857Y-97244747D01*
X98062857Y-97244747D02*
X97967619Y-97197128D01*
X97967619Y-97197128D02*
X97777143Y-97149509D01*
X97777143Y-97149509D02*
X97681905Y-97101890D01*
X97681905Y-97101890D02*
X97634286Y-97054271D01*
X97634286Y-97054271D02*
X97586667Y-96959033D01*
X97586667Y-96959033D02*
X97586667Y-96863795D01*
X97586667Y-96863795D02*
X97634286Y-96768557D01*
X97634286Y-96768557D02*
X97681905Y-96720938D01*
X97681905Y-96720938D02*
X97777143Y-96673319D01*
X97777143Y-96673319D02*
X98015238Y-96673319D01*
X98015238Y-96673319D02*
X98158095Y-96720938D01*
X98491429Y-96673319D02*
X98729524Y-97673319D01*
X98729524Y-97673319D02*
X98920000Y-96959033D01*
X98920000Y-96959033D02*
X99110476Y-97673319D01*
X99110476Y-97673319D02*
X99348572Y-96673319D01*
X99872381Y-97101890D02*
X99777143Y-97054271D01*
X99777143Y-97054271D02*
X99729524Y-97006652D01*
X99729524Y-97006652D02*
X99681905Y-96911414D01*
X99681905Y-96911414D02*
X99681905Y-96863795D01*
X99681905Y-96863795D02*
X99729524Y-96768557D01*
X99729524Y-96768557D02*
X99777143Y-96720938D01*
X99777143Y-96720938D02*
X99872381Y-96673319D01*
X99872381Y-96673319D02*
X100062857Y-96673319D01*
X100062857Y-96673319D02*
X100158095Y-96720938D01*
X100158095Y-96720938D02*
X100205714Y-96768557D01*
X100205714Y-96768557D02*
X100253333Y-96863795D01*
X100253333Y-96863795D02*
X100253333Y-96911414D01*
X100253333Y-96911414D02*
X100205714Y-97006652D01*
X100205714Y-97006652D02*
X100158095Y-97054271D01*
X100158095Y-97054271D02*
X100062857Y-97101890D01*
X100062857Y-97101890D02*
X99872381Y-97101890D01*
X99872381Y-97101890D02*
X99777143Y-97149509D01*
X99777143Y-97149509D02*
X99729524Y-97197128D01*
X99729524Y-97197128D02*
X99681905Y-97292366D01*
X99681905Y-97292366D02*
X99681905Y-97482842D01*
X99681905Y-97482842D02*
X99729524Y-97578080D01*
X99729524Y-97578080D02*
X99777143Y-97625700D01*
X99777143Y-97625700D02*
X99872381Y-97673319D01*
X99872381Y-97673319D02*
X100062857Y-97673319D01*
X100062857Y-97673319D02*
X100158095Y-97625700D01*
X100158095Y-97625700D02*
X100205714Y-97578080D01*
X100205714Y-97578080D02*
X100253333Y-97482842D01*
X100253333Y-97482842D02*
X100253333Y-97292366D01*
X100253333Y-97292366D02*
X100205714Y-97197128D01*
X100205714Y-97197128D02*
X100158095Y-97149509D01*
X100158095Y-97149509D02*
X100062857Y-97101890D01*
X78536667Y-59525700D02*
X78679524Y-59573319D01*
X78679524Y-59573319D02*
X78917619Y-59573319D01*
X78917619Y-59573319D02*
X79012857Y-59525700D01*
X79012857Y-59525700D02*
X79060476Y-59478080D01*
X79060476Y-59478080D02*
X79108095Y-59382842D01*
X79108095Y-59382842D02*
X79108095Y-59287604D01*
X79108095Y-59287604D02*
X79060476Y-59192366D01*
X79060476Y-59192366D02*
X79012857Y-59144747D01*
X79012857Y-59144747D02*
X78917619Y-59097128D01*
X78917619Y-59097128D02*
X78727143Y-59049509D01*
X78727143Y-59049509D02*
X78631905Y-59001890D01*
X78631905Y-59001890D02*
X78584286Y-58954271D01*
X78584286Y-58954271D02*
X78536667Y-58859033D01*
X78536667Y-58859033D02*
X78536667Y-58763795D01*
X78536667Y-58763795D02*
X78584286Y-58668557D01*
X78584286Y-58668557D02*
X78631905Y-58620938D01*
X78631905Y-58620938D02*
X78727143Y-58573319D01*
X78727143Y-58573319D02*
X78965238Y-58573319D01*
X78965238Y-58573319D02*
X79108095Y-58620938D01*
X79441429Y-58573319D02*
X79679524Y-59573319D01*
X79679524Y-59573319D02*
X79870000Y-58859033D01*
X79870000Y-58859033D02*
X80060476Y-59573319D01*
X80060476Y-59573319D02*
X80298572Y-58573319D01*
X81203333Y-59573319D02*
X80631905Y-59573319D01*
X80917619Y-59573319D02*
X80917619Y-58573319D01*
X80917619Y-58573319D02*
X80822381Y-58716176D01*
X80822381Y-58716176D02*
X80727143Y-58811414D01*
X80727143Y-58811414D02*
X80631905Y-58859033D01*
X202017200Y-72572023D02*
X202064819Y-72429166D01*
X202064819Y-72429166D02*
X202064819Y-72191071D01*
X202064819Y-72191071D02*
X202017200Y-72095833D01*
X202017200Y-72095833D02*
X201969580Y-72048214D01*
X201969580Y-72048214D02*
X201874342Y-72000595D01*
X201874342Y-72000595D02*
X201779104Y-72000595D01*
X201779104Y-72000595D02*
X201683866Y-72048214D01*
X201683866Y-72048214D02*
X201636247Y-72095833D01*
X201636247Y-72095833D02*
X201588628Y-72191071D01*
X201588628Y-72191071D02*
X201541009Y-72381547D01*
X201541009Y-72381547D02*
X201493390Y-72476785D01*
X201493390Y-72476785D02*
X201445771Y-72524404D01*
X201445771Y-72524404D02*
X201350533Y-72572023D01*
X201350533Y-72572023D02*
X201255295Y-72572023D01*
X201255295Y-72572023D02*
X201160057Y-72524404D01*
X201160057Y-72524404D02*
X201112438Y-72476785D01*
X201112438Y-72476785D02*
X201064819Y-72381547D01*
X201064819Y-72381547D02*
X201064819Y-72143452D01*
X201064819Y-72143452D02*
X201112438Y-72000595D01*
X201064819Y-71667261D02*
X202064819Y-71429166D01*
X202064819Y-71429166D02*
X201350533Y-71238690D01*
X201350533Y-71238690D02*
X202064819Y-71048214D01*
X202064819Y-71048214D02*
X201064819Y-70810119D01*
X202064819Y-69905357D02*
X202064819Y-70476785D01*
X202064819Y-70191071D02*
X201064819Y-70191071D01*
X201064819Y-70191071D02*
X201207676Y-70286309D01*
X201207676Y-70286309D02*
X201302914Y-70381547D01*
X201302914Y-70381547D02*
X201350533Y-70476785D01*
X201064819Y-69572023D02*
X201064819Y-68952976D01*
X201064819Y-68952976D02*
X201445771Y-69286309D01*
X201445771Y-69286309D02*
X201445771Y-69143452D01*
X201445771Y-69143452D02*
X201493390Y-69048214D01*
X201493390Y-69048214D02*
X201541009Y-69000595D01*
X201541009Y-69000595D02*
X201636247Y-68952976D01*
X201636247Y-68952976D02*
X201874342Y-68952976D01*
X201874342Y-68952976D02*
X201969580Y-69000595D01*
X201969580Y-69000595D02*
X202017200Y-69048214D01*
X202017200Y-69048214D02*
X202064819Y-69143452D01*
X202064819Y-69143452D02*
X202064819Y-69429166D01*
X202064819Y-69429166D02*
X202017200Y-69524404D01*
X202017200Y-69524404D02*
X201969580Y-69572023D01*
X97586667Y-78575700D02*
X97729524Y-78623319D01*
X97729524Y-78623319D02*
X97967619Y-78623319D01*
X97967619Y-78623319D02*
X98062857Y-78575700D01*
X98062857Y-78575700D02*
X98110476Y-78528080D01*
X98110476Y-78528080D02*
X98158095Y-78432842D01*
X98158095Y-78432842D02*
X98158095Y-78337604D01*
X98158095Y-78337604D02*
X98110476Y-78242366D01*
X98110476Y-78242366D02*
X98062857Y-78194747D01*
X98062857Y-78194747D02*
X97967619Y-78147128D01*
X97967619Y-78147128D02*
X97777143Y-78099509D01*
X97777143Y-78099509D02*
X97681905Y-78051890D01*
X97681905Y-78051890D02*
X97634286Y-78004271D01*
X97634286Y-78004271D02*
X97586667Y-77909033D01*
X97586667Y-77909033D02*
X97586667Y-77813795D01*
X97586667Y-77813795D02*
X97634286Y-77718557D01*
X97634286Y-77718557D02*
X97681905Y-77670938D01*
X97681905Y-77670938D02*
X97777143Y-77623319D01*
X97777143Y-77623319D02*
X98015238Y-77623319D01*
X98015238Y-77623319D02*
X98158095Y-77670938D01*
X98491429Y-77623319D02*
X98729524Y-78623319D01*
X98729524Y-78623319D02*
X98920000Y-77909033D01*
X98920000Y-77909033D02*
X99110476Y-78623319D01*
X99110476Y-78623319D02*
X99348572Y-77623319D01*
X100205714Y-77623319D02*
X99729524Y-77623319D01*
X99729524Y-77623319D02*
X99681905Y-78099509D01*
X99681905Y-78099509D02*
X99729524Y-78051890D01*
X99729524Y-78051890D02*
X99824762Y-78004271D01*
X99824762Y-78004271D02*
X100062857Y-78004271D01*
X100062857Y-78004271D02*
X100158095Y-78051890D01*
X100158095Y-78051890D02*
X100205714Y-78099509D01*
X100205714Y-78099509D02*
X100253333Y-78194747D01*
X100253333Y-78194747D02*
X100253333Y-78432842D01*
X100253333Y-78432842D02*
X100205714Y-78528080D01*
X100205714Y-78528080D02*
X100158095Y-78575700D01*
X100158095Y-78575700D02*
X100062857Y-78623319D01*
X100062857Y-78623319D02*
X99824762Y-78623319D01*
X99824762Y-78623319D02*
X99729524Y-78575700D01*
X99729524Y-78575700D02*
X99681905Y-78528080D01*
X177881428Y-73521319D02*
X177881428Y-72521319D01*
X177881428Y-72521319D02*
X178119523Y-72521319D01*
X178119523Y-72521319D02*
X178262380Y-72568938D01*
X178262380Y-72568938D02*
X178357618Y-72664176D01*
X178357618Y-72664176D02*
X178405237Y-72759414D01*
X178405237Y-72759414D02*
X178452856Y-72949890D01*
X178452856Y-72949890D02*
X178452856Y-73092747D01*
X178452856Y-73092747D02*
X178405237Y-73283223D01*
X178405237Y-73283223D02*
X178357618Y-73378461D01*
X178357618Y-73378461D02*
X178262380Y-73473700D01*
X178262380Y-73473700D02*
X178119523Y-73521319D01*
X178119523Y-73521319D02*
X177881428Y-73521319D01*
X178881428Y-73521319D02*
X178881428Y-72854652D01*
X178881428Y-72521319D02*
X178833809Y-72568938D01*
X178833809Y-72568938D02*
X178881428Y-72616557D01*
X178881428Y-72616557D02*
X178929047Y-72568938D01*
X178929047Y-72568938D02*
X178881428Y-72521319D01*
X178881428Y-72521319D02*
X178881428Y-72616557D01*
X179309999Y-73473700D02*
X179405237Y-73521319D01*
X179405237Y-73521319D02*
X179595713Y-73521319D01*
X179595713Y-73521319D02*
X179690951Y-73473700D01*
X179690951Y-73473700D02*
X179738570Y-73378461D01*
X179738570Y-73378461D02*
X179738570Y-73330842D01*
X179738570Y-73330842D02*
X179690951Y-73235604D01*
X179690951Y-73235604D02*
X179595713Y-73187985D01*
X179595713Y-73187985D02*
X179452856Y-73187985D01*
X179452856Y-73187985D02*
X179357618Y-73140366D01*
X179357618Y-73140366D02*
X179309999Y-73045128D01*
X179309999Y-73045128D02*
X179309999Y-72997509D01*
X179309999Y-72997509D02*
X179357618Y-72902271D01*
X179357618Y-72902271D02*
X179452856Y-72854652D01*
X179452856Y-72854652D02*
X179595713Y-72854652D01*
X179595713Y-72854652D02*
X179690951Y-72902271D01*
X180167142Y-72854652D02*
X180167142Y-73854652D01*
X180167142Y-72902271D02*
X180262380Y-72854652D01*
X180262380Y-72854652D02*
X180452856Y-72854652D01*
X180452856Y-72854652D02*
X180548094Y-72902271D01*
X180548094Y-72902271D02*
X180595713Y-72949890D01*
X180595713Y-72949890D02*
X180643332Y-73045128D01*
X180643332Y-73045128D02*
X180643332Y-73330842D01*
X180643332Y-73330842D02*
X180595713Y-73426080D01*
X180595713Y-73426080D02*
X180548094Y-73473700D01*
X180548094Y-73473700D02*
X180452856Y-73521319D01*
X180452856Y-73521319D02*
X180262380Y-73521319D01*
X180262380Y-73521319D02*
X180167142Y-73473700D01*
X181214761Y-73521319D02*
X181119523Y-73473700D01*
X181119523Y-73473700D02*
X181071904Y-73378461D01*
X181071904Y-73378461D02*
X181071904Y-72521319D01*
X182024285Y-73521319D02*
X182024285Y-72997509D01*
X182024285Y-72997509D02*
X181976666Y-72902271D01*
X181976666Y-72902271D02*
X181881428Y-72854652D01*
X181881428Y-72854652D02*
X181690952Y-72854652D01*
X181690952Y-72854652D02*
X181595714Y-72902271D01*
X182024285Y-73473700D02*
X181929047Y-73521319D01*
X181929047Y-73521319D02*
X181690952Y-73521319D01*
X181690952Y-73521319D02*
X181595714Y-73473700D01*
X181595714Y-73473700D02*
X181548095Y-73378461D01*
X181548095Y-73378461D02*
X181548095Y-73283223D01*
X181548095Y-73283223D02*
X181595714Y-73187985D01*
X181595714Y-73187985D02*
X181690952Y-73140366D01*
X181690952Y-73140366D02*
X181929047Y-73140366D01*
X181929047Y-73140366D02*
X182024285Y-73092747D01*
X182405238Y-72854652D02*
X182643333Y-73521319D01*
X182881428Y-72854652D02*
X182643333Y-73521319D01*
X182643333Y-73521319D02*
X182548095Y-73759414D01*
X182548095Y-73759414D02*
X182500476Y-73807033D01*
X182500476Y-73807033D02*
X182405238Y-73854652D01*
X183786190Y-73521319D02*
X183214762Y-73521319D01*
X183500476Y-73521319D02*
X183500476Y-72521319D01*
X183500476Y-72521319D02*
X183405238Y-72664176D01*
X183405238Y-72664176D02*
X183310000Y-72759414D01*
X183310000Y-72759414D02*
X183214762Y-72807033D01*
X78536667Y-78575700D02*
X78679524Y-78623319D01*
X78679524Y-78623319D02*
X78917619Y-78623319D01*
X78917619Y-78623319D02*
X79012857Y-78575700D01*
X79012857Y-78575700D02*
X79060476Y-78528080D01*
X79060476Y-78528080D02*
X79108095Y-78432842D01*
X79108095Y-78432842D02*
X79108095Y-78337604D01*
X79108095Y-78337604D02*
X79060476Y-78242366D01*
X79060476Y-78242366D02*
X79012857Y-78194747D01*
X79012857Y-78194747D02*
X78917619Y-78147128D01*
X78917619Y-78147128D02*
X78727143Y-78099509D01*
X78727143Y-78099509D02*
X78631905Y-78051890D01*
X78631905Y-78051890D02*
X78584286Y-78004271D01*
X78584286Y-78004271D02*
X78536667Y-77909033D01*
X78536667Y-77909033D02*
X78536667Y-77813795D01*
X78536667Y-77813795D02*
X78584286Y-77718557D01*
X78584286Y-77718557D02*
X78631905Y-77670938D01*
X78631905Y-77670938D02*
X78727143Y-77623319D01*
X78727143Y-77623319D02*
X78965238Y-77623319D01*
X78965238Y-77623319D02*
X79108095Y-77670938D01*
X79441429Y-77623319D02*
X79679524Y-78623319D01*
X79679524Y-78623319D02*
X79870000Y-77909033D01*
X79870000Y-77909033D02*
X80060476Y-78623319D01*
X80060476Y-78623319D02*
X80298572Y-77623319D01*
X81108095Y-77956652D02*
X81108095Y-78623319D01*
X80870000Y-77575700D02*
X80631905Y-78289985D01*
X80631905Y-78289985D02*
X81250952Y-78289985D01*
X116636667Y-78575700D02*
X116779524Y-78623319D01*
X116779524Y-78623319D02*
X117017619Y-78623319D01*
X117017619Y-78623319D02*
X117112857Y-78575700D01*
X117112857Y-78575700D02*
X117160476Y-78528080D01*
X117160476Y-78528080D02*
X117208095Y-78432842D01*
X117208095Y-78432842D02*
X117208095Y-78337604D01*
X117208095Y-78337604D02*
X117160476Y-78242366D01*
X117160476Y-78242366D02*
X117112857Y-78194747D01*
X117112857Y-78194747D02*
X117017619Y-78147128D01*
X117017619Y-78147128D02*
X116827143Y-78099509D01*
X116827143Y-78099509D02*
X116731905Y-78051890D01*
X116731905Y-78051890D02*
X116684286Y-78004271D01*
X116684286Y-78004271D02*
X116636667Y-77909033D01*
X116636667Y-77909033D02*
X116636667Y-77813795D01*
X116636667Y-77813795D02*
X116684286Y-77718557D01*
X116684286Y-77718557D02*
X116731905Y-77670938D01*
X116731905Y-77670938D02*
X116827143Y-77623319D01*
X116827143Y-77623319D02*
X117065238Y-77623319D01*
X117065238Y-77623319D02*
X117208095Y-77670938D01*
X117541429Y-77623319D02*
X117779524Y-78623319D01*
X117779524Y-78623319D02*
X117970000Y-77909033D01*
X117970000Y-77909033D02*
X118160476Y-78623319D01*
X118160476Y-78623319D02*
X118398572Y-77623319D01*
X119208095Y-77623319D02*
X119017619Y-77623319D01*
X119017619Y-77623319D02*
X118922381Y-77670938D01*
X118922381Y-77670938D02*
X118874762Y-77718557D01*
X118874762Y-77718557D02*
X118779524Y-77861414D01*
X118779524Y-77861414D02*
X118731905Y-78051890D01*
X118731905Y-78051890D02*
X118731905Y-78432842D01*
X118731905Y-78432842D02*
X118779524Y-78528080D01*
X118779524Y-78528080D02*
X118827143Y-78575700D01*
X118827143Y-78575700D02*
X118922381Y-78623319D01*
X118922381Y-78623319D02*
X119112857Y-78623319D01*
X119112857Y-78623319D02*
X119208095Y-78575700D01*
X119208095Y-78575700D02*
X119255714Y-78528080D01*
X119255714Y-78528080D02*
X119303333Y-78432842D01*
X119303333Y-78432842D02*
X119303333Y-78194747D01*
X119303333Y-78194747D02*
X119255714Y-78099509D01*
X119255714Y-78099509D02*
X119208095Y-78051890D01*
X119208095Y-78051890D02*
X119112857Y-78004271D01*
X119112857Y-78004271D02*
X118922381Y-78004271D01*
X118922381Y-78004271D02*
X118827143Y-78051890D01*
X118827143Y-78051890D02*
X118779524Y-78099509D01*
X118779524Y-78099509D02*
X118731905Y-78194747D01*
X205520476Y-97845700D02*
X205663333Y-97893319D01*
X205663333Y-97893319D02*
X205901428Y-97893319D01*
X205901428Y-97893319D02*
X205996666Y-97845700D01*
X205996666Y-97845700D02*
X206044285Y-97798080D01*
X206044285Y-97798080D02*
X206091904Y-97702842D01*
X206091904Y-97702842D02*
X206091904Y-97607604D01*
X206091904Y-97607604D02*
X206044285Y-97512366D01*
X206044285Y-97512366D02*
X205996666Y-97464747D01*
X205996666Y-97464747D02*
X205901428Y-97417128D01*
X205901428Y-97417128D02*
X205710952Y-97369509D01*
X205710952Y-97369509D02*
X205615714Y-97321890D01*
X205615714Y-97321890D02*
X205568095Y-97274271D01*
X205568095Y-97274271D02*
X205520476Y-97179033D01*
X205520476Y-97179033D02*
X205520476Y-97083795D01*
X205520476Y-97083795D02*
X205568095Y-96988557D01*
X205568095Y-96988557D02*
X205615714Y-96940938D01*
X205615714Y-96940938D02*
X205710952Y-96893319D01*
X205710952Y-96893319D02*
X205949047Y-96893319D01*
X205949047Y-96893319D02*
X206091904Y-96940938D01*
X206425238Y-96893319D02*
X206663333Y-97893319D01*
X206663333Y-97893319D02*
X206853809Y-97179033D01*
X206853809Y-97179033D02*
X207044285Y-97893319D01*
X207044285Y-97893319D02*
X207282381Y-96893319D01*
X208187142Y-97893319D02*
X207615714Y-97893319D01*
X207901428Y-97893319D02*
X207901428Y-96893319D01*
X207901428Y-96893319D02*
X207806190Y-97036176D01*
X207806190Y-97036176D02*
X207710952Y-97131414D01*
X207710952Y-97131414D02*
X207615714Y-97179033D01*
X208568095Y-96988557D02*
X208615714Y-96940938D01*
X208615714Y-96940938D02*
X208710952Y-96893319D01*
X208710952Y-96893319D02*
X208949047Y-96893319D01*
X208949047Y-96893319D02*
X209044285Y-96940938D01*
X209044285Y-96940938D02*
X209091904Y-96988557D01*
X209091904Y-96988557D02*
X209139523Y-97083795D01*
X209139523Y-97083795D02*
X209139523Y-97179033D01*
X209139523Y-97179033D02*
X209091904Y-97321890D01*
X209091904Y-97321890D02*
X208520476Y-97893319D01*
X208520476Y-97893319D02*
X209139523Y-97893319D01*
X167420476Y-97845700D02*
X167563333Y-97893319D01*
X167563333Y-97893319D02*
X167801428Y-97893319D01*
X167801428Y-97893319D02*
X167896666Y-97845700D01*
X167896666Y-97845700D02*
X167944285Y-97798080D01*
X167944285Y-97798080D02*
X167991904Y-97702842D01*
X167991904Y-97702842D02*
X167991904Y-97607604D01*
X167991904Y-97607604D02*
X167944285Y-97512366D01*
X167944285Y-97512366D02*
X167896666Y-97464747D01*
X167896666Y-97464747D02*
X167801428Y-97417128D01*
X167801428Y-97417128D02*
X167610952Y-97369509D01*
X167610952Y-97369509D02*
X167515714Y-97321890D01*
X167515714Y-97321890D02*
X167468095Y-97274271D01*
X167468095Y-97274271D02*
X167420476Y-97179033D01*
X167420476Y-97179033D02*
X167420476Y-97083795D01*
X167420476Y-97083795D02*
X167468095Y-96988557D01*
X167468095Y-96988557D02*
X167515714Y-96940938D01*
X167515714Y-96940938D02*
X167610952Y-96893319D01*
X167610952Y-96893319D02*
X167849047Y-96893319D01*
X167849047Y-96893319D02*
X167991904Y-96940938D01*
X168325238Y-96893319D02*
X168563333Y-97893319D01*
X168563333Y-97893319D02*
X168753809Y-97179033D01*
X168753809Y-97179033D02*
X168944285Y-97893319D01*
X168944285Y-97893319D02*
X169182381Y-96893319D01*
X170087142Y-97893319D02*
X169515714Y-97893319D01*
X169801428Y-97893319D02*
X169801428Y-96893319D01*
X169801428Y-96893319D02*
X169706190Y-97036176D01*
X169706190Y-97036176D02*
X169610952Y-97131414D01*
X169610952Y-97131414D02*
X169515714Y-97179033D01*
X170706190Y-96893319D02*
X170801428Y-96893319D01*
X170801428Y-96893319D02*
X170896666Y-96940938D01*
X170896666Y-96940938D02*
X170944285Y-96988557D01*
X170944285Y-96988557D02*
X170991904Y-97083795D01*
X170991904Y-97083795D02*
X171039523Y-97274271D01*
X171039523Y-97274271D02*
X171039523Y-97512366D01*
X171039523Y-97512366D02*
X170991904Y-97702842D01*
X170991904Y-97702842D02*
X170944285Y-97798080D01*
X170944285Y-97798080D02*
X170896666Y-97845700D01*
X170896666Y-97845700D02*
X170801428Y-97893319D01*
X170801428Y-97893319D02*
X170706190Y-97893319D01*
X170706190Y-97893319D02*
X170610952Y-97845700D01*
X170610952Y-97845700D02*
X170563333Y-97798080D01*
X170563333Y-97798080D02*
X170515714Y-97702842D01*
X170515714Y-97702842D02*
X170468095Y-97512366D01*
X170468095Y-97512366D02*
X170468095Y-97274271D01*
X170468095Y-97274271D02*
X170515714Y-97083795D01*
X170515714Y-97083795D02*
X170563333Y-96988557D01*
X170563333Y-96988557D02*
X170610952Y-96940938D01*
X170610952Y-96940938D02*
X170706190Y-96893319D01*
X156226660Y-108784104D02*
X156702850Y-108784104D01*
X156131422Y-109069819D02*
X156464755Y-108069819D01*
X156464755Y-108069819D02*
X156798088Y-109069819D01*
X157655231Y-109069819D02*
X157083803Y-109069819D01*
X157369517Y-109069819D02*
X157369517Y-108069819D01*
X157369517Y-108069819D02*
X157274279Y-108212676D01*
X157274279Y-108212676D02*
X157179041Y-108307914D01*
X157179041Y-108307914D02*
X157083803Y-108355533D01*
X116636667Y-97625700D02*
X116779524Y-97673319D01*
X116779524Y-97673319D02*
X117017619Y-97673319D01*
X117017619Y-97673319D02*
X117112857Y-97625700D01*
X117112857Y-97625700D02*
X117160476Y-97578080D01*
X117160476Y-97578080D02*
X117208095Y-97482842D01*
X117208095Y-97482842D02*
X117208095Y-97387604D01*
X117208095Y-97387604D02*
X117160476Y-97292366D01*
X117160476Y-97292366D02*
X117112857Y-97244747D01*
X117112857Y-97244747D02*
X117017619Y-97197128D01*
X117017619Y-97197128D02*
X116827143Y-97149509D01*
X116827143Y-97149509D02*
X116731905Y-97101890D01*
X116731905Y-97101890D02*
X116684286Y-97054271D01*
X116684286Y-97054271D02*
X116636667Y-96959033D01*
X116636667Y-96959033D02*
X116636667Y-96863795D01*
X116636667Y-96863795D02*
X116684286Y-96768557D01*
X116684286Y-96768557D02*
X116731905Y-96720938D01*
X116731905Y-96720938D02*
X116827143Y-96673319D01*
X116827143Y-96673319D02*
X117065238Y-96673319D01*
X117065238Y-96673319D02*
X117208095Y-96720938D01*
X117541429Y-96673319D02*
X117779524Y-97673319D01*
X117779524Y-97673319D02*
X117970000Y-96959033D01*
X117970000Y-96959033D02*
X118160476Y-97673319D01*
X118160476Y-97673319D02*
X118398572Y-96673319D01*
X118827143Y-97673319D02*
X119017619Y-97673319D01*
X119017619Y-97673319D02*
X119112857Y-97625700D01*
X119112857Y-97625700D02*
X119160476Y-97578080D01*
X119160476Y-97578080D02*
X119255714Y-97435223D01*
X119255714Y-97435223D02*
X119303333Y-97244747D01*
X119303333Y-97244747D02*
X119303333Y-96863795D01*
X119303333Y-96863795D02*
X119255714Y-96768557D01*
X119255714Y-96768557D02*
X119208095Y-96720938D01*
X119208095Y-96720938D02*
X119112857Y-96673319D01*
X119112857Y-96673319D02*
X118922381Y-96673319D01*
X118922381Y-96673319D02*
X118827143Y-96720938D01*
X118827143Y-96720938D02*
X118779524Y-96768557D01*
X118779524Y-96768557D02*
X118731905Y-96863795D01*
X118731905Y-96863795D02*
X118731905Y-97101890D01*
X118731905Y-97101890D02*
X118779524Y-97197128D01*
X118779524Y-97197128D02*
X118827143Y-97244747D01*
X118827143Y-97244747D02*
X118922381Y-97292366D01*
X118922381Y-97292366D02*
X119112857Y-97292366D01*
X119112857Y-97292366D02*
X119208095Y-97244747D01*
X119208095Y-97244747D02*
X119255714Y-97197128D01*
X119255714Y-97197128D02*
X119303333Y-97101890D01*
X186470476Y-97845700D02*
X186613333Y-97893319D01*
X186613333Y-97893319D02*
X186851428Y-97893319D01*
X186851428Y-97893319D02*
X186946666Y-97845700D01*
X186946666Y-97845700D02*
X186994285Y-97798080D01*
X186994285Y-97798080D02*
X187041904Y-97702842D01*
X187041904Y-97702842D02*
X187041904Y-97607604D01*
X187041904Y-97607604D02*
X186994285Y-97512366D01*
X186994285Y-97512366D02*
X186946666Y-97464747D01*
X186946666Y-97464747D02*
X186851428Y-97417128D01*
X186851428Y-97417128D02*
X186660952Y-97369509D01*
X186660952Y-97369509D02*
X186565714Y-97321890D01*
X186565714Y-97321890D02*
X186518095Y-97274271D01*
X186518095Y-97274271D02*
X186470476Y-97179033D01*
X186470476Y-97179033D02*
X186470476Y-97083795D01*
X186470476Y-97083795D02*
X186518095Y-96988557D01*
X186518095Y-96988557D02*
X186565714Y-96940938D01*
X186565714Y-96940938D02*
X186660952Y-96893319D01*
X186660952Y-96893319D02*
X186899047Y-96893319D01*
X186899047Y-96893319D02*
X187041904Y-96940938D01*
X187375238Y-96893319D02*
X187613333Y-97893319D01*
X187613333Y-97893319D02*
X187803809Y-97179033D01*
X187803809Y-97179033D02*
X187994285Y-97893319D01*
X187994285Y-97893319D02*
X188232381Y-96893319D01*
X189137142Y-97893319D02*
X188565714Y-97893319D01*
X188851428Y-97893319D02*
X188851428Y-96893319D01*
X188851428Y-96893319D02*
X188756190Y-97036176D01*
X188756190Y-97036176D02*
X188660952Y-97131414D01*
X188660952Y-97131414D02*
X188565714Y-97179033D01*
X190089523Y-97893319D02*
X189518095Y-97893319D01*
X189803809Y-97893319D02*
X189803809Y-96893319D01*
X189803809Y-96893319D02*
X189708571Y-97036176D01*
X189708571Y-97036176D02*
X189613333Y-97131414D01*
X189613333Y-97131414D02*
X189518095Y-97179033D01*
X116636667Y-59525700D02*
X116779524Y-59573319D01*
X116779524Y-59573319D02*
X117017619Y-59573319D01*
X117017619Y-59573319D02*
X117112857Y-59525700D01*
X117112857Y-59525700D02*
X117160476Y-59478080D01*
X117160476Y-59478080D02*
X117208095Y-59382842D01*
X117208095Y-59382842D02*
X117208095Y-59287604D01*
X117208095Y-59287604D02*
X117160476Y-59192366D01*
X117160476Y-59192366D02*
X117112857Y-59144747D01*
X117112857Y-59144747D02*
X117017619Y-59097128D01*
X117017619Y-59097128D02*
X116827143Y-59049509D01*
X116827143Y-59049509D02*
X116731905Y-59001890D01*
X116731905Y-59001890D02*
X116684286Y-58954271D01*
X116684286Y-58954271D02*
X116636667Y-58859033D01*
X116636667Y-58859033D02*
X116636667Y-58763795D01*
X116636667Y-58763795D02*
X116684286Y-58668557D01*
X116684286Y-58668557D02*
X116731905Y-58620938D01*
X116731905Y-58620938D02*
X116827143Y-58573319D01*
X116827143Y-58573319D02*
X117065238Y-58573319D01*
X117065238Y-58573319D02*
X117208095Y-58620938D01*
X117541429Y-58573319D02*
X117779524Y-59573319D01*
X117779524Y-59573319D02*
X117970000Y-58859033D01*
X117970000Y-58859033D02*
X118160476Y-59573319D01*
X118160476Y-59573319D02*
X118398572Y-58573319D01*
X118684286Y-58573319D02*
X119303333Y-58573319D01*
X119303333Y-58573319D02*
X118970000Y-58954271D01*
X118970000Y-58954271D02*
X119112857Y-58954271D01*
X119112857Y-58954271D02*
X119208095Y-59001890D01*
X119208095Y-59001890D02*
X119255714Y-59049509D01*
X119255714Y-59049509D02*
X119303333Y-59144747D01*
X119303333Y-59144747D02*
X119303333Y-59382842D01*
X119303333Y-59382842D02*
X119255714Y-59478080D01*
X119255714Y-59478080D02*
X119208095Y-59525700D01*
X119208095Y-59525700D02*
X119112857Y-59573319D01*
X119112857Y-59573319D02*
X118827143Y-59573319D01*
X118827143Y-59573319D02*
X118731905Y-59525700D01*
X118731905Y-59525700D02*
X118684286Y-59478080D01*
X97586667Y-59525700D02*
X97729524Y-59573319D01*
X97729524Y-59573319D02*
X97967619Y-59573319D01*
X97967619Y-59573319D02*
X98062857Y-59525700D01*
X98062857Y-59525700D02*
X98110476Y-59478080D01*
X98110476Y-59478080D02*
X98158095Y-59382842D01*
X98158095Y-59382842D02*
X98158095Y-59287604D01*
X98158095Y-59287604D02*
X98110476Y-59192366D01*
X98110476Y-59192366D02*
X98062857Y-59144747D01*
X98062857Y-59144747D02*
X97967619Y-59097128D01*
X97967619Y-59097128D02*
X97777143Y-59049509D01*
X97777143Y-59049509D02*
X97681905Y-59001890D01*
X97681905Y-59001890D02*
X97634286Y-58954271D01*
X97634286Y-58954271D02*
X97586667Y-58859033D01*
X97586667Y-58859033D02*
X97586667Y-58763795D01*
X97586667Y-58763795D02*
X97634286Y-58668557D01*
X97634286Y-58668557D02*
X97681905Y-58620938D01*
X97681905Y-58620938D02*
X97777143Y-58573319D01*
X97777143Y-58573319D02*
X98015238Y-58573319D01*
X98015238Y-58573319D02*
X98158095Y-58620938D01*
X98491429Y-58573319D02*
X98729524Y-59573319D01*
X98729524Y-59573319D02*
X98920000Y-58859033D01*
X98920000Y-58859033D02*
X99110476Y-59573319D01*
X99110476Y-59573319D02*
X99348572Y-58573319D01*
X99681905Y-58668557D02*
X99729524Y-58620938D01*
X99729524Y-58620938D02*
X99824762Y-58573319D01*
X99824762Y-58573319D02*
X100062857Y-58573319D01*
X100062857Y-58573319D02*
X100158095Y-58620938D01*
X100158095Y-58620938D02*
X100205714Y-58668557D01*
X100205714Y-58668557D02*
X100253333Y-58763795D01*
X100253333Y-58763795D02*
X100253333Y-58859033D01*
X100253333Y-58859033D02*
X100205714Y-59001890D01*
X100205714Y-59001890D02*
X99634286Y-59573319D01*
X99634286Y-59573319D02*
X100253333Y-59573319D01*
X201917200Y-91322023D02*
X201964819Y-91179166D01*
X201964819Y-91179166D02*
X201964819Y-90941071D01*
X201964819Y-90941071D02*
X201917200Y-90845833D01*
X201917200Y-90845833D02*
X201869580Y-90798214D01*
X201869580Y-90798214D02*
X201774342Y-90750595D01*
X201774342Y-90750595D02*
X201679104Y-90750595D01*
X201679104Y-90750595D02*
X201583866Y-90798214D01*
X201583866Y-90798214D02*
X201536247Y-90845833D01*
X201536247Y-90845833D02*
X201488628Y-90941071D01*
X201488628Y-90941071D02*
X201441009Y-91131547D01*
X201441009Y-91131547D02*
X201393390Y-91226785D01*
X201393390Y-91226785D02*
X201345771Y-91274404D01*
X201345771Y-91274404D02*
X201250533Y-91322023D01*
X201250533Y-91322023D02*
X201155295Y-91322023D01*
X201155295Y-91322023D02*
X201060057Y-91274404D01*
X201060057Y-91274404D02*
X201012438Y-91226785D01*
X201012438Y-91226785D02*
X200964819Y-91131547D01*
X200964819Y-91131547D02*
X200964819Y-90893452D01*
X200964819Y-90893452D02*
X201012438Y-90750595D01*
X200964819Y-90417261D02*
X201964819Y-90179166D01*
X201964819Y-90179166D02*
X201250533Y-89988690D01*
X201250533Y-89988690D02*
X201964819Y-89798214D01*
X201964819Y-89798214D02*
X200964819Y-89560119D01*
X201964819Y-88655357D02*
X201964819Y-89226785D01*
X201964819Y-88941071D02*
X200964819Y-88941071D01*
X200964819Y-88941071D02*
X201107676Y-89036309D01*
X201107676Y-89036309D02*
X201202914Y-89131547D01*
X201202914Y-89131547D02*
X201250533Y-89226785D01*
X201298152Y-87798214D02*
X201964819Y-87798214D01*
X200917200Y-88036309D02*
X201631485Y-88274404D01*
X201631485Y-88274404D02*
X201631485Y-87655357D01*
%TO.C,SW7*%
D11*
X72885000Y-98107500D02*
X86855000Y-98107500D01*
X72885000Y-112077500D02*
X72885000Y-98107500D01*
X86855000Y-98107500D02*
X86855000Y-112077500D01*
X86855000Y-112077500D02*
X72885000Y-112077500D01*
%TO.C,SW8*%
X91935000Y-98107500D02*
X105905000Y-98107500D01*
X91935000Y-112077500D02*
X91935000Y-98107500D01*
X105905000Y-98107500D02*
X105905000Y-112077500D01*
X105905000Y-112077500D02*
X91935000Y-112077500D01*
%TO.C,SW1*%
X72885000Y-60007500D02*
X86855000Y-60007500D01*
X72885000Y-73977500D02*
X72885000Y-60007500D01*
X86855000Y-60007500D02*
X86855000Y-73977500D01*
X86855000Y-73977500D02*
X72885000Y-73977500D01*
%TO.C,SW13*%
X202910000Y-59962500D02*
X205310000Y-59962500D01*
X202910000Y-64062500D02*
X202910000Y-59962500D01*
X202910000Y-68062500D02*
X202910000Y-72162500D01*
X202910000Y-72162500D02*
X214710000Y-72162500D01*
X204710000Y-73262500D02*
X205010000Y-73562500D01*
X204710000Y-73862500D02*
X204710000Y-73262500D01*
X205010000Y-73562500D02*
X204710000Y-73862500D01*
X207510000Y-59962500D02*
X210110000Y-59962500D01*
X208310000Y-66062500D02*
X209310000Y-66062500D01*
X208810000Y-66562500D02*
X208810000Y-65562500D01*
X212310000Y-59962500D02*
X214710000Y-59962500D01*
X214710000Y-59962500D02*
X214710000Y-64062500D01*
X214710000Y-68062500D02*
X214710000Y-72162500D01*
X211810000Y-66062500D02*
G75*
G02*
X205810000Y-66062500I-3000000J0D01*
G01*
X205810000Y-66062500D02*
G75*
G02*
X211810000Y-66062500I3000000J0D01*
G01*
%TO.C,SW5*%
X91935000Y-79057500D02*
X105905000Y-79057500D01*
X91935000Y-93027500D02*
X91935000Y-79057500D01*
X105905000Y-79057500D02*
X105905000Y-93027500D01*
X105905000Y-93027500D02*
X91935000Y-93027500D01*
%TO.C,Display1*%
X167410000Y-60512500D02*
X194810000Y-60512500D01*
X167410000Y-87812500D02*
X167410000Y-60512500D01*
X167832000Y-63807500D02*
X190932000Y-63807500D01*
X167832000Y-80407500D02*
X167832000Y-63807500D01*
X176111000Y-61001500D02*
X176111000Y-63414500D01*
X176111000Y-61001500D02*
X185890000Y-61001500D01*
X185890000Y-61001500D02*
X185890000Y-63414500D01*
X185890000Y-63414500D02*
X176111000Y-63414500D01*
X190932000Y-63807500D02*
X194018000Y-63807500D01*
X190932000Y-80407500D02*
X167832000Y-80407500D01*
X190932000Y-80407500D02*
X194272000Y-80432500D01*
X194272000Y-63795500D02*
X194018000Y-63807500D01*
X194272000Y-80432500D02*
X194272000Y-63795500D01*
X194810000Y-60512500D02*
X194810000Y-87812500D01*
X194810000Y-87812500D02*
X167410000Y-87812500D01*
%TO.C,SW4*%
X72885000Y-79057500D02*
X86855000Y-79057500D01*
X72885000Y-93027500D02*
X72885000Y-79057500D01*
X86855000Y-79057500D02*
X86855000Y-93027500D01*
X86855000Y-93027500D02*
X72885000Y-93027500D01*
%TO.C,SW6*%
X110985000Y-79057500D02*
X124955000Y-79057500D01*
X110985000Y-93027500D02*
X110985000Y-79057500D01*
X124955000Y-79057500D02*
X124955000Y-93027500D01*
X124955000Y-93027500D02*
X110985000Y-93027500D01*
%TO.C,SW12*%
X200345000Y-98327500D02*
X214315000Y-98327500D01*
X200345000Y-112297500D02*
X200345000Y-98327500D01*
X214315000Y-98327500D02*
X214315000Y-112297500D01*
X214315000Y-112297500D02*
X200345000Y-112297500D01*
%TO.C,SW10*%
X162245000Y-98327500D02*
X176215000Y-98327500D01*
X162245000Y-112297500D02*
X162245000Y-98327500D01*
X176215000Y-98327500D02*
X176215000Y-112297500D01*
X176215000Y-112297500D02*
X162245000Y-112297500D01*
%TO.C,A1*%
X133260000Y-60520000D02*
X133260000Y-58920000D01*
X133580000Y-58850000D02*
X133580000Y-108850000D01*
X133920000Y-58303000D02*
X133920000Y-109397000D01*
X134190000Y-58240000D02*
X136680000Y-58240000D01*
X134190000Y-109460000D02*
X138027939Y-109460000D01*
X136680000Y-58240000D02*
X136680000Y-59153520D01*
X136680000Y-58240000D02*
X138027940Y-58240000D01*
X136680000Y-61546480D02*
X136680000Y-106153520D01*
X136680000Y-108546480D02*
X136680000Y-109460000D01*
X138952061Y-58240000D02*
X139955000Y-58240000D01*
X139955000Y-58240000D02*
X148425000Y-58240000D01*
X140080000Y-56940000D02*
X140080000Y-57760000D01*
X140080000Y-56940000D02*
X148300000Y-56940000D01*
X140080000Y-57760000D02*
X140290000Y-57760000D01*
X140290000Y-57760000D02*
X140290000Y-59156000D01*
X140290000Y-61544000D02*
X140290000Y-62760000D01*
X140590000Y-109460000D02*
X138952061Y-109460000D01*
X147790000Y-109460000D02*
X140590000Y-109460000D01*
X148090000Y-57760000D02*
X148090000Y-59156000D01*
X148090000Y-61544000D02*
X148090000Y-62760000D01*
X148090000Y-62760000D02*
X140290000Y-62760000D01*
X148300000Y-56940000D02*
X148300000Y-57760000D01*
X148300000Y-57760000D02*
X148090000Y-57760000D01*
X148425000Y-58240000D02*
X149427939Y-58240000D01*
X149427939Y-109460000D02*
X147790000Y-109460000D01*
X150352061Y-58240000D02*
X151700000Y-58240000D01*
X150352061Y-109460000D02*
X154190000Y-109460000D01*
X151700000Y-58240000D02*
X151700000Y-59153520D01*
X151700000Y-61546480D02*
X151700000Y-106153520D01*
X151700000Y-108546480D02*
X151700000Y-109460000D01*
X154190000Y-58240000D02*
X151700000Y-58240000D01*
X154460000Y-109397000D02*
X154460000Y-58303000D01*
X154800000Y-58850000D02*
X154800000Y-108850000D01*
X133580000Y-58850000D02*
G75*
G02*
X134190000Y-58240000I610000J0D01*
G01*
X134190000Y-109460000D02*
G75*
G02*
X133580000Y-108850000I-99J609901D01*
G01*
X154190000Y-58240000D02*
G75*
G02*
X154800000Y-58850000I0J-610000D01*
G01*
X154800000Y-108850000D02*
G75*
G02*
X154190000Y-109460000I-610000J0D01*
G01*
%TO.C,SW9*%
X110985000Y-98107500D02*
X124955000Y-98107500D01*
X110985000Y-112077500D02*
X110985000Y-98107500D01*
X124955000Y-98107500D02*
X124955000Y-112077500D01*
X124955000Y-112077500D02*
X110985000Y-112077500D01*
%TO.C,SW11*%
X181295000Y-98327500D02*
X195265000Y-98327500D01*
X181295000Y-112297500D02*
X181295000Y-98327500D01*
X195265000Y-98327500D02*
X195265000Y-112297500D01*
X195265000Y-112297500D02*
X181295000Y-112297500D01*
%TO.C,SW3*%
X110985000Y-60007500D02*
X124955000Y-60007500D01*
X110985000Y-73977500D02*
X110985000Y-60007500D01*
X124955000Y-60007500D02*
X124955000Y-73977500D01*
X124955000Y-73977500D02*
X110985000Y-73977500D01*
%TO.C,SW2*%
X91935000Y-60007500D02*
X105905000Y-60007500D01*
X91935000Y-73977500D02*
X91935000Y-60007500D01*
X105905000Y-60007500D02*
X105905000Y-73977500D01*
X105905000Y-73977500D02*
X91935000Y-73977500D01*
%TO.C,SW14*%
X202810000Y-78712500D02*
X205210000Y-78712500D01*
X202810000Y-82812500D02*
X202810000Y-78712500D01*
X202810000Y-86812500D02*
X202810000Y-90912500D01*
X202810000Y-90912500D02*
X214610000Y-90912500D01*
X204610000Y-92012500D02*
X204910000Y-92312500D01*
X204610000Y-92612500D02*
X204610000Y-92012500D01*
X204910000Y-92312500D02*
X204610000Y-92612500D01*
X207410000Y-78712500D02*
X210010000Y-78712500D01*
X208210000Y-84812500D02*
X209210000Y-84812500D01*
X208710000Y-85312500D02*
X208710000Y-84312500D01*
X212210000Y-78712500D02*
X214610000Y-78712500D01*
X214610000Y-78712500D02*
X214610000Y-82812500D01*
X214610000Y-86812500D02*
X214610000Y-90912500D01*
X211710000Y-84812500D02*
G75*
G02*
X205710000Y-84812500I-3000000J0D01*
G01*
X205710000Y-84812500D02*
G75*
G02*
X211710000Y-84812500I3000000J0D01*
G01*
%TD*%
M02*
