M48
; DRILL file KiCad 10.0.2 date 2026-09-24T20:39:48
; FORMAT={-:-/ absolute / metric / decimal}
; #@! TF.CreationDate,2026-09-24T20:39:48+05:30
; #@! TF.GenerationSoftware,Kicad,Pcbnew,10.0.2
; #@! TF.FileFunction,Plated,1,2,PTH
FMAT,2
METRIC
; #@! TA.AperFunction,Plated,PTH,ViaDrill
T1C0.300
; #@! TA.AperFunction,Plated,PTH,ComponentDrill
T2C0.800
; #@! TA.AperFunction,Plated,PTH,ComponentDrill
T3C1.000
; #@! TA.AperFunction,Plated,PTH,ComponentDrill
T4C1.500
%
G90
G05
T1
X132.0Y-71.5
X138.0Y-99.5
X139.0Y-100.0
X141.5Y-94.0
T2
X89.5Y-58.19
X89.5Y-65.81
X89.5Y-77.343
X89.5Y-84.962
X89.5Y-96.392
X89.5Y-104.012
X107.5Y-77.343
X107.5Y-84.962
X108.5Y-58.292
X108.5Y-65.912
X108.5Y-96.392
X108.5Y-104.012
X127.5Y-58.19
X127.5Y-65.81
X127.5Y-77.343
X127.5Y-84.962
X127.5Y-96.392
X127.5Y-104.012
X179.0Y-96.612
X179.0Y-104.233
X198.0Y-96.612
X198.0Y-104.233
X216.5Y-96.612
X216.5Y-104.233
T3
X135.3Y-59.72
X135.3Y-62.26
X135.3Y-64.8
X135.3Y-67.34
X135.3Y-69.88
X135.3Y-72.42
X135.3Y-74.96
X135.3Y-77.5
X135.3Y-80.04
X135.3Y-82.58
X135.3Y-85.12
X135.3Y-87.66
X135.3Y-90.2
X135.3Y-92.74
X135.3Y-95.28
X135.3Y-97.82
X135.3Y-100.36
X135.3Y-102.9
X135.3Y-105.44
X135.3Y-107.98
X153.08Y-59.72
X153.08Y-62.26
X153.08Y-64.8
X153.08Y-67.34
X153.08Y-69.88
X153.08Y-72.42
X153.08Y-74.96
X153.08Y-77.5
X153.08Y-80.04
X153.08Y-82.58
X153.08Y-85.12
X153.08Y-87.66
X153.08Y-90.2
X153.08Y-92.74
X153.08Y-95.28
X153.08Y-97.82
X153.08Y-100.36
X153.08Y-102.9
X153.08Y-105.44
X153.08Y-107.98
X177.19Y-62.212
X179.73Y-62.212
X182.27Y-62.212
X184.81Y-62.212
X206.21Y-77.812
X206.21Y-92.312
X206.31Y-59.062
X206.31Y-73.562
X208.71Y-92.312
X208.81Y-73.562
X211.21Y-77.812
X211.21Y-92.312
X211.31Y-59.062
X211.31Y-73.562
T4
X76.06Y-64.453
X76.06Y-83.502
X76.06Y-102.552
X82.41Y-61.912
X82.41Y-80.962
X82.41Y-100.012
X95.11Y-64.453
X95.11Y-83.502
X95.11Y-102.552
X101.46Y-61.912
X101.46Y-80.962
X101.46Y-100.012
X114.16Y-64.453
X114.16Y-83.502
X114.16Y-102.552
X120.51Y-61.912
X120.51Y-80.962
X120.51Y-100.012
X165.42Y-102.772
X171.77Y-100.233
X184.47Y-102.772
X190.82Y-100.233
X203.52Y-102.772
X209.87Y-100.233
T4
G00X203.11Y-85.462
M15
G01X203.11Y-84.162
M16
G05
G00X203.21Y-66.712
M15
G01X203.21Y-65.412
M16
G05
G00X214.31Y-85.462
M15
G01X214.31Y-84.162
M16
G05
G00X214.41Y-66.712
M15
G01X214.41Y-65.412
M16
G05
M30
