%TF.GenerationSoftware,KiCad,Pcbnew,10.0.2*%
%TF.CreationDate,2026-09-24T20:39:42+05:30*%
%TF.ProjectId,Micropad,4d696372-6f70-4616-942e-6b696361645f,rev?*%
%TF.SameCoordinates,Original*%
%TF.FileFunction,Soldermask,Bot*%
%TF.FilePolarity,Negative*%
%FSLAX46Y46*%
G04 Gerber Fmt 4.6, Leading zero omitted, Abs format (unit mm)*
G04 Created by KiCad (PCBNEW 10.0.2) date 2026-09-24 20:39:42*
%MOMM*%
%LPD*%
G01*
G04 APERTURE LIST*
G04 Aperture macros list*
%AMRoundRect*
0 Rectangle with rounded corners*
0 $1 Rounding radius*
0 $2 $3 $4 $5 $6 $7 $8 $9 X,Y pos of 4 corners*
0 Add a 4 corners polygon primitive as box body*
4,1,4,$2,$3,$4,$5,$6,$7,$8,$9,$2,$3,0*
0 Add four circle primitives for the rounded corners*
1,1,$1+$1,$2,$3*
1,1,$1+$1,$4,$5*
1,1,$1+$1,$6,$7*
1,1,$1+$1,$8,$9*
0 Add four rect primitives between the rounded corners*
20,1,$1+$1,$2,$3,$4,$5,0*
20,1,$1+$1,$4,$5,$6,$7,0*
20,1,$1+$1,$6,$7,$8,$9,0*
20,1,$1+$1,$8,$9,$2,$3,0*%
%AMFreePoly0*
4,1,37,0.603843,0.796157,0.639018,0.796157,0.711114,0.766294,0.766294,0.711114,0.796157,0.639018,0.796157,0.603843,0.800000,0.600000,0.800000,-0.600000,0.796157,-0.603843,0.796157,-0.639018,0.766294,-0.711114,0.711114,-0.766294,0.639018,-0.796157,0.603843,-0.796157,0.600000,-0.800000,0.000000,-0.800000,0.000000,-0.796148,-0.078414,-0.796148,-0.232228,-0.765552,-0.377117,-0.705537,
-0.507515,-0.618408,-0.618408,-0.507515,-0.705537,-0.377117,-0.765552,-0.232228,-0.796148,-0.078414,-0.796148,0.078414,-0.765552,0.232228,-0.705537,0.377117,-0.618408,0.507515,-0.507515,0.618408,-0.377117,0.705537,-0.232228,0.765552,-0.078414,0.796148,0.000000,0.796148,0.000000,0.800000,0.600000,0.800000,0.603843,0.796157,0.603843,0.796157,$1*%
%AMFreePoly1*
4,1,37,0.000000,0.796148,0.078414,0.796148,0.232228,0.765552,0.377117,0.705537,0.507515,0.618408,0.618408,0.507515,0.705537,0.377117,0.765552,0.232228,0.796148,0.078414,0.796148,-0.078414,0.765552,-0.232228,0.705537,-0.377117,0.618408,-0.507515,0.507515,-0.618408,0.377117,-0.705537,0.232228,-0.765552,0.078414,-0.796148,0.000000,-0.796148,0.000000,-0.800000,-0.600000,-0.800000,
-0.603843,-0.796157,-0.639018,-0.796157,-0.711114,-0.766294,-0.766294,-0.711114,-0.796157,-0.639018,-0.796157,-0.603843,-0.800000,-0.600000,-0.800000,0.600000,-0.796157,0.603843,-0.796157,0.639018,-0.766294,0.711114,-0.711114,0.766294,-0.639018,0.796157,-0.603843,0.796157,-0.600000,0.800000,0.000000,0.800000,0.000000,0.796148,0.000000,0.796148,$1*%
G04 Aperture macros list end*
%ADD10C,1.700000*%
%ADD11C,4.000000*%
%ADD12C,2.200000*%
%ADD13R,2.000000X2.000000*%
%ADD14C,2.000000*%
%ADD15R,2.000000X3.200000*%
%ADD16O,1.600000X2.000000*%
%ADD17RoundRect,0.200000X-0.600000X-0.600000X0.600000X-0.600000X0.600000X0.600000X-0.600000X0.600000X0*%
%ADD18C,1.600000*%
%ADD19FreePoly0,0.000000*%
%ADD20FreePoly1,0.000000*%
%ADD21RoundRect,0.250000X0.550000X-0.550000X0.550000X0.550000X-0.550000X0.550000X-0.550000X-0.550000X0*%
G04 APERTURE END LIST*
D10*
%TO.C,SW7*%
X74790000Y-105092500D03*
D11*
X79870000Y-105092500D03*
D10*
X84950000Y-105092500D03*
D12*
X82410000Y-100012500D03*
X76060000Y-102552500D03*
%TD*%
D10*
%TO.C,SW8*%
X93840000Y-105092500D03*
D11*
X98920000Y-105092500D03*
D10*
X104000000Y-105092500D03*
D12*
X101460000Y-100012500D03*
X95110000Y-102552500D03*
%TD*%
D10*
%TO.C,SW1*%
X74790000Y-66992500D03*
D11*
X79870000Y-66992500D03*
D10*
X84950000Y-66992500D03*
D12*
X82410000Y-61912500D03*
X76060000Y-64452500D03*
%TD*%
D13*
%TO.C,SW13*%
X206310000Y-73562500D03*
D14*
X211310000Y-73562500D03*
X208810000Y-73562500D03*
D15*
X203210000Y-66062500D03*
X214410000Y-66062500D03*
D14*
X211310000Y-59062500D03*
X206310000Y-59062500D03*
%TD*%
D10*
%TO.C,SW5*%
X93840000Y-86042500D03*
D11*
X98920000Y-86042500D03*
D10*
X104000000Y-86042500D03*
D12*
X101460000Y-80962500D03*
X95110000Y-83502500D03*
%TD*%
D16*
%TO.C,Display1*%
X177190000Y-62212500D03*
X179730000Y-62212500D03*
X182270000Y-62212500D03*
X184810000Y-62212500D03*
%TD*%
D10*
%TO.C,SW4*%
X74790000Y-86042500D03*
D11*
X79870000Y-86042500D03*
D10*
X84950000Y-86042500D03*
D12*
X82410000Y-80962500D03*
X76060000Y-83502500D03*
%TD*%
D10*
%TO.C,SW6*%
X112890000Y-86042500D03*
D11*
X117970000Y-86042500D03*
D10*
X123050000Y-86042500D03*
D12*
X120510000Y-80962500D03*
X114160000Y-83502500D03*
%TD*%
D10*
%TO.C,SW12*%
X202250000Y-105312500D03*
D11*
X207330000Y-105312500D03*
D10*
X212410000Y-105312500D03*
D12*
X209870000Y-100232500D03*
X203520000Y-102772500D03*
%TD*%
D10*
%TO.C,SW10*%
X164150000Y-105312500D03*
D11*
X169230000Y-105312500D03*
D10*
X174310000Y-105312500D03*
D12*
X171770000Y-100232500D03*
X165420000Y-102772500D03*
%TD*%
D17*
%TO.C,A1*%
X135300000Y-59720000D03*
D18*
X135300000Y-62260000D03*
D19*
X135300000Y-64800000D03*
D18*
X135300000Y-67340000D03*
X135300000Y-69880000D03*
X135300000Y-72420000D03*
X135300000Y-74960000D03*
D19*
X135300000Y-77500000D03*
D18*
X135300000Y-80040000D03*
X135300000Y-82580000D03*
X135300000Y-85120000D03*
X135300000Y-87660000D03*
D19*
X135300000Y-90200000D03*
D18*
X135300000Y-92740000D03*
X135300000Y-95280000D03*
X135300000Y-97820000D03*
X135300000Y-100360000D03*
D19*
X135300000Y-102900000D03*
D18*
X135300000Y-105440000D03*
X135300000Y-107980000D03*
X153080000Y-107980000D03*
X153080000Y-105440000D03*
D20*
X153080000Y-102900000D03*
D18*
X153080000Y-100360000D03*
X153080000Y-97820000D03*
X153080000Y-95280000D03*
X153080000Y-92740000D03*
D20*
X153080000Y-90200000D03*
D18*
X153080000Y-87660000D03*
X153080000Y-85120000D03*
X153080000Y-82580000D03*
X153080000Y-80040000D03*
D20*
X153080000Y-77500000D03*
D18*
X153080000Y-74960000D03*
X153080000Y-72420000D03*
X153080000Y-69880000D03*
X153080000Y-67340000D03*
D20*
X153080000Y-64800000D03*
D18*
X153080000Y-62260000D03*
X153080000Y-59720000D03*
%TD*%
D10*
%TO.C,SW9*%
X112890000Y-105092500D03*
D11*
X117970000Y-105092500D03*
D10*
X123050000Y-105092500D03*
D12*
X120510000Y-100012500D03*
X114160000Y-102552500D03*
%TD*%
D10*
%TO.C,SW11*%
X183200000Y-105312500D03*
D11*
X188280000Y-105312500D03*
D10*
X193360000Y-105312500D03*
D12*
X190820000Y-100232500D03*
X184470000Y-102772500D03*
%TD*%
D10*
%TO.C,SW3*%
X112890000Y-66992500D03*
D11*
X117970000Y-66992500D03*
D10*
X123050000Y-66992500D03*
D12*
X120510000Y-61912500D03*
X114160000Y-64452500D03*
%TD*%
D10*
%TO.C,SW2*%
X93840000Y-66992500D03*
D11*
X98920000Y-66992500D03*
D10*
X104000000Y-66992500D03*
D12*
X101460000Y-61912500D03*
X95110000Y-64452500D03*
%TD*%
D13*
%TO.C,SW14*%
X206210000Y-92312500D03*
D14*
X211210000Y-92312500D03*
X208710000Y-92312500D03*
D15*
X203110000Y-84812500D03*
X214310000Y-84812500D03*
D14*
X211210000Y-77812500D03*
X206210000Y-77812500D03*
%TD*%
D21*
%TO.C,D11*%
X198000000Y-104232500D03*
D18*
X198000000Y-96612500D03*
%TD*%
D21*
%TO.C,D9*%
X127500000Y-104012500D03*
D18*
X127500000Y-96392500D03*
%TD*%
D21*
%TO.C,D2*%
X108500000Y-65912500D03*
D18*
X108500000Y-58292500D03*
%TD*%
D21*
%TO.C,D8*%
X108500000Y-104012500D03*
D18*
X108500000Y-96392500D03*
%TD*%
D21*
%TO.C,D1*%
X89500000Y-65810000D03*
D18*
X89500000Y-58190000D03*
%TD*%
D21*
%TO.C,D12*%
X216500000Y-104232500D03*
D18*
X216500000Y-96612500D03*
%TD*%
D21*
%TO.C,D3*%
X127500000Y-65810000D03*
D18*
X127500000Y-58190000D03*
%TD*%
D21*
%TO.C,D7*%
X89500000Y-104012500D03*
D18*
X89500000Y-96392500D03*
%TD*%
D21*
%TO.C,D5*%
X107500000Y-84962500D03*
D18*
X107500000Y-77342500D03*
%TD*%
D21*
%TO.C,D4*%
X89500000Y-84962500D03*
D18*
X89500000Y-77342500D03*
%TD*%
D21*
%TO.C,D6*%
X127500000Y-84962500D03*
D18*
X127500000Y-77342500D03*
%TD*%
D21*
%TO.C,D10*%
X179000000Y-104232500D03*
D18*
X179000000Y-96612500D03*
%TD*%
M02*
