%TF.GenerationSoftware,KiCad,Pcbnew,10.0.2*%
%TF.CreationDate,2026-09-24T20:39:42+05:30*%
%TF.ProjectId,Micropad,4d696372-6f70-4616-942e-6b696361645f,rev?*%
%TF.SameCoordinates,Original*%
%TF.FileFunction,Legend,Bot*%
%TF.FilePolarity,Positive*%
%FSLAX46Y46*%
G04 Gerber Fmt 4.6, Leading zero omitted, Abs format (unit mm)*
G04 Created by KiCad (PCBNEW 10.0.2) date 2026-09-24 20:39:42*
%MOMM*%
%LPD*%
G01*
G04 APERTURE LIST*
%ADD10C,0.150000*%
%ADD11C,0.120000*%
G04 APERTURE END LIST*
D10*
X200574819Y-99208214D02*
X199574819Y-99208214D01*
X199574819Y-99208214D02*
X199574819Y-99446309D01*
X199574819Y-99446309D02*
X199622438Y-99589166D01*
X199622438Y-99589166D02*
X199717676Y-99684404D01*
X199717676Y-99684404D02*
X199812914Y-99732023D01*
X199812914Y-99732023D02*
X200003390Y-99779642D01*
X200003390Y-99779642D02*
X200146247Y-99779642D01*
X200146247Y-99779642D02*
X200336723Y-99732023D01*
X200336723Y-99732023D02*
X200431961Y-99684404D01*
X200431961Y-99684404D02*
X200527200Y-99589166D01*
X200527200Y-99589166D02*
X200574819Y-99446309D01*
X200574819Y-99446309D02*
X200574819Y-99208214D01*
X200574819Y-100732023D02*
X200574819Y-100160595D01*
X200574819Y-100446309D02*
X199574819Y-100446309D01*
X199574819Y-100446309D02*
X199717676Y-100351071D01*
X199717676Y-100351071D02*
X199812914Y-100255833D01*
X199812914Y-100255833D02*
X199860533Y-100160595D01*
X200574819Y-101684404D02*
X200574819Y-101112976D01*
X200574819Y-101398690D02*
X199574819Y-101398690D01*
X199574819Y-101398690D02*
X199717676Y-101303452D01*
X199717676Y-101303452D02*
X199812914Y-101208214D01*
X199812914Y-101208214D02*
X199860533Y-101112976D01*
X200254819Y-103970595D02*
X199254819Y-103970595D01*
X200254819Y-104542023D02*
X199683390Y-104113452D01*
X199254819Y-104542023D02*
X199826247Y-103970595D01*
X130074819Y-99464405D02*
X129074819Y-99464405D01*
X129074819Y-99464405D02*
X129074819Y-99702500D01*
X129074819Y-99702500D02*
X129122438Y-99845357D01*
X129122438Y-99845357D02*
X129217676Y-99940595D01*
X129217676Y-99940595D02*
X129312914Y-99988214D01*
X129312914Y-99988214D02*
X129503390Y-100035833D01*
X129503390Y-100035833D02*
X129646247Y-100035833D01*
X129646247Y-100035833D02*
X129836723Y-99988214D01*
X129836723Y-99988214D02*
X129931961Y-99940595D01*
X129931961Y-99940595D02*
X130027200Y-99845357D01*
X130027200Y-99845357D02*
X130074819Y-99702500D01*
X130074819Y-99702500D02*
X130074819Y-99464405D01*
X130074819Y-100512024D02*
X130074819Y-100702500D01*
X130074819Y-100702500D02*
X130027200Y-100797738D01*
X130027200Y-100797738D02*
X129979580Y-100845357D01*
X129979580Y-100845357D02*
X129836723Y-100940595D01*
X129836723Y-100940595D02*
X129646247Y-100988214D01*
X129646247Y-100988214D02*
X129265295Y-100988214D01*
X129265295Y-100988214D02*
X129170057Y-100940595D01*
X129170057Y-100940595D02*
X129122438Y-100892976D01*
X129122438Y-100892976D02*
X129074819Y-100797738D01*
X129074819Y-100797738D02*
X129074819Y-100607262D01*
X129074819Y-100607262D02*
X129122438Y-100512024D01*
X129122438Y-100512024D02*
X129170057Y-100464405D01*
X129170057Y-100464405D02*
X129265295Y-100416786D01*
X129265295Y-100416786D02*
X129503390Y-100416786D01*
X129503390Y-100416786D02*
X129598628Y-100464405D01*
X129598628Y-100464405D02*
X129646247Y-100512024D01*
X129646247Y-100512024D02*
X129693866Y-100607262D01*
X129693866Y-100607262D02*
X129693866Y-100797738D01*
X129693866Y-100797738D02*
X129646247Y-100892976D01*
X129646247Y-100892976D02*
X129598628Y-100940595D01*
X129598628Y-100940595D02*
X129503390Y-100988214D01*
X129754819Y-103750595D02*
X128754819Y-103750595D01*
X129754819Y-104322023D02*
X129183390Y-103893452D01*
X128754819Y-104322023D02*
X129326247Y-103750595D01*
X111074819Y-61364405D02*
X110074819Y-61364405D01*
X110074819Y-61364405D02*
X110074819Y-61602500D01*
X110074819Y-61602500D02*
X110122438Y-61745357D01*
X110122438Y-61745357D02*
X110217676Y-61840595D01*
X110217676Y-61840595D02*
X110312914Y-61888214D01*
X110312914Y-61888214D02*
X110503390Y-61935833D01*
X110503390Y-61935833D02*
X110646247Y-61935833D01*
X110646247Y-61935833D02*
X110836723Y-61888214D01*
X110836723Y-61888214D02*
X110931961Y-61840595D01*
X110931961Y-61840595D02*
X111027200Y-61745357D01*
X111027200Y-61745357D02*
X111074819Y-61602500D01*
X111074819Y-61602500D02*
X111074819Y-61364405D01*
X110170057Y-62316786D02*
X110122438Y-62364405D01*
X110122438Y-62364405D02*
X110074819Y-62459643D01*
X110074819Y-62459643D02*
X110074819Y-62697738D01*
X110074819Y-62697738D02*
X110122438Y-62792976D01*
X110122438Y-62792976D02*
X110170057Y-62840595D01*
X110170057Y-62840595D02*
X110265295Y-62888214D01*
X110265295Y-62888214D02*
X110360533Y-62888214D01*
X110360533Y-62888214D02*
X110503390Y-62840595D01*
X110503390Y-62840595D02*
X111074819Y-62269167D01*
X111074819Y-62269167D02*
X111074819Y-62888214D01*
X110754819Y-65650595D02*
X109754819Y-65650595D01*
X110754819Y-66222023D02*
X110183390Y-65793452D01*
X109754819Y-66222023D02*
X110326247Y-65650595D01*
X111074819Y-99464405D02*
X110074819Y-99464405D01*
X110074819Y-99464405D02*
X110074819Y-99702500D01*
X110074819Y-99702500D02*
X110122438Y-99845357D01*
X110122438Y-99845357D02*
X110217676Y-99940595D01*
X110217676Y-99940595D02*
X110312914Y-99988214D01*
X110312914Y-99988214D02*
X110503390Y-100035833D01*
X110503390Y-100035833D02*
X110646247Y-100035833D01*
X110646247Y-100035833D02*
X110836723Y-99988214D01*
X110836723Y-99988214D02*
X110931961Y-99940595D01*
X110931961Y-99940595D02*
X111027200Y-99845357D01*
X111027200Y-99845357D02*
X111074819Y-99702500D01*
X111074819Y-99702500D02*
X111074819Y-99464405D01*
X110503390Y-100607262D02*
X110455771Y-100512024D01*
X110455771Y-100512024D02*
X110408152Y-100464405D01*
X110408152Y-100464405D02*
X110312914Y-100416786D01*
X110312914Y-100416786D02*
X110265295Y-100416786D01*
X110265295Y-100416786D02*
X110170057Y-100464405D01*
X110170057Y-100464405D02*
X110122438Y-100512024D01*
X110122438Y-100512024D02*
X110074819Y-100607262D01*
X110074819Y-100607262D02*
X110074819Y-100797738D01*
X110074819Y-100797738D02*
X110122438Y-100892976D01*
X110122438Y-100892976D02*
X110170057Y-100940595D01*
X110170057Y-100940595D02*
X110265295Y-100988214D01*
X110265295Y-100988214D02*
X110312914Y-100988214D01*
X110312914Y-100988214D02*
X110408152Y-100940595D01*
X110408152Y-100940595D02*
X110455771Y-100892976D01*
X110455771Y-100892976D02*
X110503390Y-100797738D01*
X110503390Y-100797738D02*
X110503390Y-100607262D01*
X110503390Y-100607262D02*
X110551009Y-100512024D01*
X110551009Y-100512024D02*
X110598628Y-100464405D01*
X110598628Y-100464405D02*
X110693866Y-100416786D01*
X110693866Y-100416786D02*
X110884342Y-100416786D01*
X110884342Y-100416786D02*
X110979580Y-100464405D01*
X110979580Y-100464405D02*
X111027200Y-100512024D01*
X111027200Y-100512024D02*
X111074819Y-100607262D01*
X111074819Y-100607262D02*
X111074819Y-100797738D01*
X111074819Y-100797738D02*
X111027200Y-100892976D01*
X111027200Y-100892976D02*
X110979580Y-100940595D01*
X110979580Y-100940595D02*
X110884342Y-100988214D01*
X110884342Y-100988214D02*
X110693866Y-100988214D01*
X110693866Y-100988214D02*
X110598628Y-100940595D01*
X110598628Y-100940595D02*
X110551009Y-100892976D01*
X110551009Y-100892976D02*
X110503390Y-100797738D01*
X110754819Y-103750595D02*
X109754819Y-103750595D01*
X110754819Y-104322023D02*
X110183390Y-103893452D01*
X109754819Y-104322023D02*
X110326247Y-103750595D01*
X92074819Y-61261905D02*
X91074819Y-61261905D01*
X91074819Y-61261905D02*
X91074819Y-61500000D01*
X91074819Y-61500000D02*
X91122438Y-61642857D01*
X91122438Y-61642857D02*
X91217676Y-61738095D01*
X91217676Y-61738095D02*
X91312914Y-61785714D01*
X91312914Y-61785714D02*
X91503390Y-61833333D01*
X91503390Y-61833333D02*
X91646247Y-61833333D01*
X91646247Y-61833333D02*
X91836723Y-61785714D01*
X91836723Y-61785714D02*
X91931961Y-61738095D01*
X91931961Y-61738095D02*
X92027200Y-61642857D01*
X92027200Y-61642857D02*
X92074819Y-61500000D01*
X92074819Y-61500000D02*
X92074819Y-61261905D01*
X92074819Y-62785714D02*
X92074819Y-62214286D01*
X92074819Y-62500000D02*
X91074819Y-62500000D01*
X91074819Y-62500000D02*
X91217676Y-62404762D01*
X91217676Y-62404762D02*
X91312914Y-62309524D01*
X91312914Y-62309524D02*
X91360533Y-62214286D01*
X91754819Y-65548095D02*
X90754819Y-65548095D01*
X91754819Y-66119523D02*
X91183390Y-65690952D01*
X90754819Y-66119523D02*
X91326247Y-65548095D01*
X219074819Y-99208214D02*
X218074819Y-99208214D01*
X218074819Y-99208214D02*
X218074819Y-99446309D01*
X218074819Y-99446309D02*
X218122438Y-99589166D01*
X218122438Y-99589166D02*
X218217676Y-99684404D01*
X218217676Y-99684404D02*
X218312914Y-99732023D01*
X218312914Y-99732023D02*
X218503390Y-99779642D01*
X218503390Y-99779642D02*
X218646247Y-99779642D01*
X218646247Y-99779642D02*
X218836723Y-99732023D01*
X218836723Y-99732023D02*
X218931961Y-99684404D01*
X218931961Y-99684404D02*
X219027200Y-99589166D01*
X219027200Y-99589166D02*
X219074819Y-99446309D01*
X219074819Y-99446309D02*
X219074819Y-99208214D01*
X219074819Y-100732023D02*
X219074819Y-100160595D01*
X219074819Y-100446309D02*
X218074819Y-100446309D01*
X218074819Y-100446309D02*
X218217676Y-100351071D01*
X218217676Y-100351071D02*
X218312914Y-100255833D01*
X218312914Y-100255833D02*
X218360533Y-100160595D01*
X218170057Y-101112976D02*
X218122438Y-101160595D01*
X218122438Y-101160595D02*
X218074819Y-101255833D01*
X218074819Y-101255833D02*
X218074819Y-101493928D01*
X218074819Y-101493928D02*
X218122438Y-101589166D01*
X218122438Y-101589166D02*
X218170057Y-101636785D01*
X218170057Y-101636785D02*
X218265295Y-101684404D01*
X218265295Y-101684404D02*
X218360533Y-101684404D01*
X218360533Y-101684404D02*
X218503390Y-101636785D01*
X218503390Y-101636785D02*
X219074819Y-101065357D01*
X219074819Y-101065357D02*
X219074819Y-101684404D01*
X218754819Y-103970595D02*
X217754819Y-103970595D01*
X218754819Y-104542023D02*
X218183390Y-104113452D01*
X217754819Y-104542023D02*
X218326247Y-103970595D01*
X130074819Y-61261905D02*
X129074819Y-61261905D01*
X129074819Y-61261905D02*
X129074819Y-61500000D01*
X129074819Y-61500000D02*
X129122438Y-61642857D01*
X129122438Y-61642857D02*
X129217676Y-61738095D01*
X129217676Y-61738095D02*
X129312914Y-61785714D01*
X129312914Y-61785714D02*
X129503390Y-61833333D01*
X129503390Y-61833333D02*
X129646247Y-61833333D01*
X129646247Y-61833333D02*
X129836723Y-61785714D01*
X129836723Y-61785714D02*
X129931961Y-61738095D01*
X129931961Y-61738095D02*
X130027200Y-61642857D01*
X130027200Y-61642857D02*
X130074819Y-61500000D01*
X130074819Y-61500000D02*
X130074819Y-61261905D01*
X129074819Y-62166667D02*
X129074819Y-62785714D01*
X129074819Y-62785714D02*
X129455771Y-62452381D01*
X129455771Y-62452381D02*
X129455771Y-62595238D01*
X129455771Y-62595238D02*
X129503390Y-62690476D01*
X129503390Y-62690476D02*
X129551009Y-62738095D01*
X129551009Y-62738095D02*
X129646247Y-62785714D01*
X129646247Y-62785714D02*
X129884342Y-62785714D01*
X129884342Y-62785714D02*
X129979580Y-62738095D01*
X129979580Y-62738095D02*
X130027200Y-62690476D01*
X130027200Y-62690476D02*
X130074819Y-62595238D01*
X130074819Y-62595238D02*
X130074819Y-62309524D01*
X130074819Y-62309524D02*
X130027200Y-62214286D01*
X130027200Y-62214286D02*
X129979580Y-62166667D01*
X129754819Y-65548095D02*
X128754819Y-65548095D01*
X129754819Y-66119523D02*
X129183390Y-65690952D01*
X128754819Y-66119523D02*
X129326247Y-65548095D01*
X92074819Y-99464405D02*
X91074819Y-99464405D01*
X91074819Y-99464405D02*
X91074819Y-99702500D01*
X91074819Y-99702500D02*
X91122438Y-99845357D01*
X91122438Y-99845357D02*
X91217676Y-99940595D01*
X91217676Y-99940595D02*
X91312914Y-99988214D01*
X91312914Y-99988214D02*
X91503390Y-100035833D01*
X91503390Y-100035833D02*
X91646247Y-100035833D01*
X91646247Y-100035833D02*
X91836723Y-99988214D01*
X91836723Y-99988214D02*
X91931961Y-99940595D01*
X91931961Y-99940595D02*
X92027200Y-99845357D01*
X92027200Y-99845357D02*
X92074819Y-99702500D01*
X92074819Y-99702500D02*
X92074819Y-99464405D01*
X91074819Y-100369167D02*
X91074819Y-101035833D01*
X91074819Y-101035833D02*
X92074819Y-100607262D01*
X91754819Y-103750595D02*
X90754819Y-103750595D01*
X91754819Y-104322023D02*
X91183390Y-103893452D01*
X90754819Y-104322023D02*
X91326247Y-103750595D01*
X110074819Y-80414405D02*
X109074819Y-80414405D01*
X109074819Y-80414405D02*
X109074819Y-80652500D01*
X109074819Y-80652500D02*
X109122438Y-80795357D01*
X109122438Y-80795357D02*
X109217676Y-80890595D01*
X109217676Y-80890595D02*
X109312914Y-80938214D01*
X109312914Y-80938214D02*
X109503390Y-80985833D01*
X109503390Y-80985833D02*
X109646247Y-80985833D01*
X109646247Y-80985833D02*
X109836723Y-80938214D01*
X109836723Y-80938214D02*
X109931961Y-80890595D01*
X109931961Y-80890595D02*
X110027200Y-80795357D01*
X110027200Y-80795357D02*
X110074819Y-80652500D01*
X110074819Y-80652500D02*
X110074819Y-80414405D01*
X109074819Y-81890595D02*
X109074819Y-81414405D01*
X109074819Y-81414405D02*
X109551009Y-81366786D01*
X109551009Y-81366786D02*
X109503390Y-81414405D01*
X109503390Y-81414405D02*
X109455771Y-81509643D01*
X109455771Y-81509643D02*
X109455771Y-81747738D01*
X109455771Y-81747738D02*
X109503390Y-81842976D01*
X109503390Y-81842976D02*
X109551009Y-81890595D01*
X109551009Y-81890595D02*
X109646247Y-81938214D01*
X109646247Y-81938214D02*
X109884342Y-81938214D01*
X109884342Y-81938214D02*
X109979580Y-81890595D01*
X109979580Y-81890595D02*
X110027200Y-81842976D01*
X110027200Y-81842976D02*
X110074819Y-81747738D01*
X110074819Y-81747738D02*
X110074819Y-81509643D01*
X110074819Y-81509643D02*
X110027200Y-81414405D01*
X110027200Y-81414405D02*
X109979580Y-81366786D01*
X109754819Y-84700595D02*
X108754819Y-84700595D01*
X109754819Y-85272023D02*
X109183390Y-84843452D01*
X108754819Y-85272023D02*
X109326247Y-84700595D01*
X92074819Y-80414405D02*
X91074819Y-80414405D01*
X91074819Y-80414405D02*
X91074819Y-80652500D01*
X91074819Y-80652500D02*
X91122438Y-80795357D01*
X91122438Y-80795357D02*
X91217676Y-80890595D01*
X91217676Y-80890595D02*
X91312914Y-80938214D01*
X91312914Y-80938214D02*
X91503390Y-80985833D01*
X91503390Y-80985833D02*
X91646247Y-80985833D01*
X91646247Y-80985833D02*
X91836723Y-80938214D01*
X91836723Y-80938214D02*
X91931961Y-80890595D01*
X91931961Y-80890595D02*
X92027200Y-80795357D01*
X92027200Y-80795357D02*
X92074819Y-80652500D01*
X92074819Y-80652500D02*
X92074819Y-80414405D01*
X91408152Y-81842976D02*
X92074819Y-81842976D01*
X91027200Y-81604881D02*
X91741485Y-81366786D01*
X91741485Y-81366786D02*
X91741485Y-81985833D01*
X91754819Y-84700595D02*
X90754819Y-84700595D01*
X91754819Y-85272023D02*
X91183390Y-84843452D01*
X90754819Y-85272023D02*
X91326247Y-84700595D01*
X130074819Y-80414405D02*
X129074819Y-80414405D01*
X129074819Y-80414405D02*
X129074819Y-80652500D01*
X129074819Y-80652500D02*
X129122438Y-80795357D01*
X129122438Y-80795357D02*
X129217676Y-80890595D01*
X129217676Y-80890595D02*
X129312914Y-80938214D01*
X129312914Y-80938214D02*
X129503390Y-80985833D01*
X129503390Y-80985833D02*
X129646247Y-80985833D01*
X129646247Y-80985833D02*
X129836723Y-80938214D01*
X129836723Y-80938214D02*
X129931961Y-80890595D01*
X129931961Y-80890595D02*
X130027200Y-80795357D01*
X130027200Y-80795357D02*
X130074819Y-80652500D01*
X130074819Y-80652500D02*
X130074819Y-80414405D01*
X129074819Y-81842976D02*
X129074819Y-81652500D01*
X129074819Y-81652500D02*
X129122438Y-81557262D01*
X129122438Y-81557262D02*
X129170057Y-81509643D01*
X129170057Y-81509643D02*
X129312914Y-81414405D01*
X129312914Y-81414405D02*
X129503390Y-81366786D01*
X129503390Y-81366786D02*
X129884342Y-81366786D01*
X129884342Y-81366786D02*
X129979580Y-81414405D01*
X129979580Y-81414405D02*
X130027200Y-81462024D01*
X130027200Y-81462024D02*
X130074819Y-81557262D01*
X130074819Y-81557262D02*
X130074819Y-81747738D01*
X130074819Y-81747738D02*
X130027200Y-81842976D01*
X130027200Y-81842976D02*
X129979580Y-81890595D01*
X129979580Y-81890595D02*
X129884342Y-81938214D01*
X129884342Y-81938214D02*
X129646247Y-81938214D01*
X129646247Y-81938214D02*
X129551009Y-81890595D01*
X129551009Y-81890595D02*
X129503390Y-81842976D01*
X129503390Y-81842976D02*
X129455771Y-81747738D01*
X129455771Y-81747738D02*
X129455771Y-81557262D01*
X129455771Y-81557262D02*
X129503390Y-81462024D01*
X129503390Y-81462024D02*
X129551009Y-81414405D01*
X129551009Y-81414405D02*
X129646247Y-81366786D01*
X129754819Y-84700595D02*
X128754819Y-84700595D01*
X129754819Y-85272023D02*
X129183390Y-84843452D01*
X128754819Y-85272023D02*
X129326247Y-84700595D01*
X181574819Y-99208214D02*
X180574819Y-99208214D01*
X180574819Y-99208214D02*
X180574819Y-99446309D01*
X180574819Y-99446309D02*
X180622438Y-99589166D01*
X180622438Y-99589166D02*
X180717676Y-99684404D01*
X180717676Y-99684404D02*
X180812914Y-99732023D01*
X180812914Y-99732023D02*
X181003390Y-99779642D01*
X181003390Y-99779642D02*
X181146247Y-99779642D01*
X181146247Y-99779642D02*
X181336723Y-99732023D01*
X181336723Y-99732023D02*
X181431961Y-99684404D01*
X181431961Y-99684404D02*
X181527200Y-99589166D01*
X181527200Y-99589166D02*
X181574819Y-99446309D01*
X181574819Y-99446309D02*
X181574819Y-99208214D01*
X181574819Y-100732023D02*
X181574819Y-100160595D01*
X181574819Y-100446309D02*
X180574819Y-100446309D01*
X180574819Y-100446309D02*
X180717676Y-100351071D01*
X180717676Y-100351071D02*
X180812914Y-100255833D01*
X180812914Y-100255833D02*
X180860533Y-100160595D01*
X180574819Y-101351071D02*
X180574819Y-101446309D01*
X180574819Y-101446309D02*
X180622438Y-101541547D01*
X180622438Y-101541547D02*
X180670057Y-101589166D01*
X180670057Y-101589166D02*
X180765295Y-101636785D01*
X180765295Y-101636785D02*
X180955771Y-101684404D01*
X180955771Y-101684404D02*
X181193866Y-101684404D01*
X181193866Y-101684404D02*
X181384342Y-101636785D01*
X181384342Y-101636785D02*
X181479580Y-101589166D01*
X181479580Y-101589166D02*
X181527200Y-101541547D01*
X181527200Y-101541547D02*
X181574819Y-101446309D01*
X181574819Y-101446309D02*
X181574819Y-101351071D01*
X181574819Y-101351071D02*
X181527200Y-101255833D01*
X181527200Y-101255833D02*
X181479580Y-101208214D01*
X181479580Y-101208214D02*
X181384342Y-101160595D01*
X181384342Y-101160595D02*
X181193866Y-101112976D01*
X181193866Y-101112976D02*
X180955771Y-101112976D01*
X180955771Y-101112976D02*
X180765295Y-101160595D01*
X180765295Y-101160595D02*
X180670057Y-101208214D01*
X180670057Y-101208214D02*
X180622438Y-101255833D01*
X180622438Y-101255833D02*
X180574819Y-101351071D01*
X181254819Y-103970595D02*
X180254819Y-103970595D01*
X181254819Y-104542023D02*
X180683390Y-104113452D01*
X180254819Y-104542023D02*
X180826247Y-103970595D01*
%TO.C,D11*%
D11*
X198000000Y-97652500D02*
X198000000Y-98302500D01*
X198000000Y-103192500D02*
X198000000Y-102542500D01*
X199120000Y-101702500D02*
X196880000Y-101702500D01*
X199120000Y-101822500D02*
X196880000Y-101822500D01*
X199120000Y-101942500D02*
X196880000Y-101942500D01*
X196880000Y-98302500D02*
X199120000Y-98302500D01*
X199120000Y-102542500D01*
X196880000Y-102542500D01*
X196880000Y-98302500D01*
%TO.C,D9*%
X127500000Y-97432500D02*
X127500000Y-98082500D01*
X127500000Y-102972500D02*
X127500000Y-102322500D01*
X128620000Y-101482500D02*
X126380000Y-101482500D01*
X128620000Y-101602500D02*
X126380000Y-101602500D01*
X128620000Y-101722500D02*
X126380000Y-101722500D01*
X126380000Y-98082500D02*
X128620000Y-98082500D01*
X128620000Y-102322500D01*
X126380000Y-102322500D01*
X126380000Y-98082500D01*
%TO.C,D2*%
X108500000Y-59332500D02*
X108500000Y-59982500D01*
X108500000Y-64872500D02*
X108500000Y-64222500D01*
X109620000Y-63382500D02*
X107380000Y-63382500D01*
X109620000Y-63502500D02*
X107380000Y-63502500D01*
X109620000Y-63622500D02*
X107380000Y-63622500D01*
X107380000Y-59982500D02*
X109620000Y-59982500D01*
X109620000Y-64222500D01*
X107380000Y-64222500D01*
X107380000Y-59982500D01*
%TO.C,D8*%
X108500000Y-97432500D02*
X108500000Y-98082500D01*
X108500000Y-102972500D02*
X108500000Y-102322500D01*
X109620000Y-101482500D02*
X107380000Y-101482500D01*
X109620000Y-101602500D02*
X107380000Y-101602500D01*
X109620000Y-101722500D02*
X107380000Y-101722500D01*
X107380000Y-98082500D02*
X109620000Y-98082500D01*
X109620000Y-102322500D01*
X107380000Y-102322500D01*
X107380000Y-98082500D01*
%TO.C,D1*%
X89500000Y-59230000D02*
X89500000Y-59880000D01*
X89500000Y-64770000D02*
X89500000Y-64120000D01*
X90620000Y-63280000D02*
X88380000Y-63280000D01*
X90620000Y-63400000D02*
X88380000Y-63400000D01*
X90620000Y-63520000D02*
X88380000Y-63520000D01*
X88380000Y-59880000D02*
X90620000Y-59880000D01*
X90620000Y-64120000D01*
X88380000Y-64120000D01*
X88380000Y-59880000D01*
%TO.C,D12*%
X216500000Y-97652500D02*
X216500000Y-98302500D01*
X216500000Y-103192500D02*
X216500000Y-102542500D01*
X217620000Y-101702500D02*
X215380000Y-101702500D01*
X217620000Y-101822500D02*
X215380000Y-101822500D01*
X217620000Y-101942500D02*
X215380000Y-101942500D01*
X215380000Y-98302500D02*
X217620000Y-98302500D01*
X217620000Y-102542500D01*
X215380000Y-102542500D01*
X215380000Y-98302500D01*
%TO.C,D3*%
X127500000Y-59230000D02*
X127500000Y-59880000D01*
X127500000Y-64770000D02*
X127500000Y-64120000D01*
X128620000Y-63280000D02*
X126380000Y-63280000D01*
X128620000Y-63400000D02*
X126380000Y-63400000D01*
X128620000Y-63520000D02*
X126380000Y-63520000D01*
X126380000Y-59880000D02*
X128620000Y-59880000D01*
X128620000Y-64120000D01*
X126380000Y-64120000D01*
X126380000Y-59880000D01*
%TO.C,D7*%
X89500000Y-97432500D02*
X89500000Y-98082500D01*
X89500000Y-102972500D02*
X89500000Y-102322500D01*
X90620000Y-101482500D02*
X88380000Y-101482500D01*
X90620000Y-101602500D02*
X88380000Y-101602500D01*
X90620000Y-101722500D02*
X88380000Y-101722500D01*
X88380000Y-98082500D02*
X90620000Y-98082500D01*
X90620000Y-102322500D01*
X88380000Y-102322500D01*
X88380000Y-98082500D01*
%TO.C,D5*%
X107500000Y-78382500D02*
X107500000Y-79032500D01*
X107500000Y-83922500D02*
X107500000Y-83272500D01*
X108620000Y-82432500D02*
X106380000Y-82432500D01*
X108620000Y-82552500D02*
X106380000Y-82552500D01*
X108620000Y-82672500D02*
X106380000Y-82672500D01*
X106380000Y-79032500D02*
X108620000Y-79032500D01*
X108620000Y-83272500D01*
X106380000Y-83272500D01*
X106380000Y-79032500D01*
%TO.C,D4*%
X89500000Y-78382500D02*
X89500000Y-79032500D01*
X89500000Y-83922500D02*
X89500000Y-83272500D01*
X90620000Y-82432500D02*
X88380000Y-82432500D01*
X90620000Y-82552500D02*
X88380000Y-82552500D01*
X90620000Y-82672500D02*
X88380000Y-82672500D01*
X88380000Y-79032500D02*
X90620000Y-79032500D01*
X90620000Y-83272500D01*
X88380000Y-83272500D01*
X88380000Y-79032500D01*
%TO.C,D6*%
X127500000Y-78382500D02*
X127500000Y-79032500D01*
X127500000Y-83922500D02*
X127500000Y-83272500D01*
X128620000Y-82432500D02*
X126380000Y-82432500D01*
X128620000Y-82552500D02*
X126380000Y-82552500D01*
X128620000Y-82672500D02*
X126380000Y-82672500D01*
X126380000Y-79032500D02*
X128620000Y-79032500D01*
X128620000Y-83272500D01*
X126380000Y-83272500D01*
X126380000Y-79032500D01*
%TO.C,D10*%
X179000000Y-97652500D02*
X179000000Y-98302500D01*
X179000000Y-103192500D02*
X179000000Y-102542500D01*
X180120000Y-101702500D02*
X177880000Y-101702500D01*
X180120000Y-101822500D02*
X177880000Y-101822500D01*
X180120000Y-101942500D02*
X177880000Y-101942500D01*
X177880000Y-98302500D02*
X180120000Y-98302500D01*
X180120000Y-102542500D01*
X177880000Y-102542500D01*
X177880000Y-98302500D01*
%TD*%
M02*
